<mxfile host="app.diagrams.net" modified="2024-03-13T14:40:01.174Z" agent="Mozilla/5.0 (Windows NT 10.0; Win64; x64) AppleWebKit/537.36 (KHTML, like Gecko) Chrome/116.0.0.0 Safari/537.36" version="24.0.5" etag="wF9TdXTI_EdNHykatjkd" type="github">
  <diagram name="第 1 页" id="xE3QMd_KkziQuBFHraem">
    <mxGraphModel>
      <root>
        <mxCell id="0" />
        <mxCell id="1" parent="0" />
      </root>
    </mxGraphModel>
  </diagram>
</mxfile>
